<?xml version="1.0" standalone="no"?>
<!DOCTYPE svg PUBLIC "-//W3C//DTD SVG 20010904//EN"
 "http://www.w3.org/TR/2001/REC-SVG-20010904/DTD/svg10.dtd">
<svg version="1.0" xmlns="http://www.w3.org/2000/svg"
 width="225.000000pt" height="256.000000pt" viewBox="0 0 225.000000 256.000000"
 preserveAspectRatio="xMidYMid meet">

<g transform="translate(0.000000,256.000000) scale(0.100000,-0.100000)"
fill="#000000" stroke="none">
<path d="M548 2247 l-548 -312 0 -650 0 -650 552 -315 c304 -173 561 -315 573
-315 12 0 269 142 573 315 l552 315 0 650 0 650 -548 313 c-382 218 -556 312
-577 312 -21 0 -196 -95 -577 -313z m1012 -493 l0 -86 -214 -302 c-118 -165
-243 -339 -279 -386 l-66 -85 285 -3 284 -2 0 -105 0 -105 -440 0 -440 0 0 81
0 80 222 312 c122 172 250 348 285 392 l63 80 -265 3 -265 2 0 105 0 105 415
0 415 0 0 -86z"/>
</g>
</svg>
